<svg xmlns="http://www.w3.org/2000/svg"><symbol id="sprite-chevron-right" viewBox="0 0 185.343 185.343"><title>chevron-right</title><path d="M51.707 185.343a10.692 10.692 0 0 1-7.593-3.149 10.724 10.724 0 0 1 0-15.175l74.352-74.347L44.114 18.32c-4.194-4.194-4.194-10.987 0-15.175 4.194-4.194 10.987-4.194 15.18 0l81.934 81.934c4.194 4.194 4.194 10.987 0 15.175l-81.934 81.939a10.678 10.678 0 0 1-7.587 3.15z"/></symbol><symbol id="sprite-close" viewBox="0 0 47.971 47.971"><title>close</title><path d="M28.228 23.986L47.092 5.122a2.998 2.998 0 0 0 0-4.242 2.998 2.998 0 0 0-4.242 0L23.986 19.744 5.121.88a2.998 2.998 0 0 0-4.242 0 2.998 2.998 0 0 0 0 4.242l18.865 18.864L.879 42.85a2.998 2.998 0 1 0 4.242 4.241l18.865-18.864L42.85 47.091c.586.586 1.354.879 2.121.879s1.535-.293 2.121-.879a2.998 2.998 0 0 0 0-4.242L28.228 23.986z" fill="currentColor"/></symbol></svg>