<svg xmlns="http://www.w3.org/2000/svg" viewBox="0 0 1587.49 458.96"><title>Asset 3</title><g id="Layer_2" data-name="Layer 2"><g id="Layer_1-2" data-name="Layer 1"><polygon points="872.13 104 877.7 50.81 28.3 179.23 0 458.96 815.62 344.71 809.78 396.08 1563.35 282.89 1587.49 0 872.13 104" fill="#fff"/><path d="M515.42,355.85l104.16-15.2,3-31.17-66,9.62,6.16-63.9,52.43-7.65,3-31.17L565.77,224l5.85-60.78,66-9.63,3-31.17-104.15,15.2ZM372.11,159.17c-37.49,5.47-59.9,28.41-63.26,63.32L297.92,336c-3.36,34.92,15.2,51.88,52.7,46.41S410.52,354,413.88,319l10.93-113.46C428.17,170.66,409.61,153.7,372.11,159.17ZM386.83,209,375.48,326.79c-1.5,15.58-9.71,22.62-21.86,24.39s-19.22-3-17.72-18.62l11.35-117.82c1.5-15.59,9.71-22.63,21.86-24.4S388.33,193.37,386.83,209Zm328-99.8c-37.49,5.47-58.86,28.26-62.22,63.17L641.63,285.8c-3.36,34.91,14.16,52,51.66,46.55s58.86-28.26,62.22-63.17l2.79-29-36.1,5.27-3,31.17c-1.5,15.59-9.68,22.31-21.83,24.09s-19.25-2.73-17.75-18.31L691,164.58c1.5-15.59,9.71-22.62,21.86-24.4s19.22,3,17.72,18.62l-2.25,23.38,36.11-5.27,2-21.19C769.8,120.8,752.28,103.69,714.78,109.16ZM459.65,313C458,329.8,447.92,335.27,435.76,337c-4.16.61-9,1.32-13.16,1.62l-3,31.17a179.62,179.62,0,0,0,18.34-2.06c28.82-4.21,55.94-19.23,60.14-62.87l15.79-164-38.19,5.57ZM109.75,199.91,53.5,208.12l-21,218.2,38.19-5.57,7.89-82,18.06-2.64c38.19-5.57,58.77-27.32,62.13-62.23l2.73-28.37C164.85,210.62,147.94,194.34,109.75,199.91Zm13.76,49-3.15,32.73c-1.5,15.59-8.58,21.54-20.73,23.31l-18,2.64,7.11-73.88,18-2.63C118.9,229.31,125,233.34,123.51,248.92Zm115-67.8-57.63,8.41-21,218.2,38.19-5.58,8.55-88.83,13.2-1.93c17.35-2.53,24.27,3.84,22.32,24.1l-3.3,34.28c-1.71,17.77-.65,21,.89,26.3l38.88-5.67c-3-7.55-2.63-15.29-1.61-25.89l3.24-33.66c2.19-22.76-2.47-38.37-20.87-42.75,17.7-9.65,27.1-25.47,29.26-47.91l1.65-17.14C293.55,189.38,278.13,175.34,238.55,181.12Zm13.24,50.93-2.07,21.51C248,271,238.82,277.89,224.58,280l-14.93,2.18,6.46-67,18.4-2.69C248.05,210.47,253.29,216.46,251.79,232.05ZM895.2,116l3-31.17-118,17.22-3,31.17,39.92-5.82-18,187,38.19-5.57,18-187ZM1496,43.54c-38.14,5.61-61.24,28.89-65,64.23l-.74,6.94c-2.31,21.77,3.67,35.49,18.64,41.05-17.4,11-26,28.36-28.26,49.5l-1.84,17.36c-3.76,35.33,15,52.44,53.19,46.83s61.23-28.88,65-64.22l1.84-17.35c2.25-21.14-2.88-36.54-18.47-42.63,16.3-10.17,25.78-26.16,28.09-47.93l.74-6.94C1552.9,55,1534.09,37.93,1496,43.54Zm5.48,145.79-2.18,20.51c-2.42,19.61-11.93,26.29-24,28.06s-20.73-2.23-18.65-21.79l2.18-20.51c1.84-17.35,10.55-26.09,23.94-28.06S1503.28,172,1501.44,189.33Zm9.78-92.13-1.3,12.31c-1.88,17.67-11.76,24.71-23.78,26.48-12.37,1.82-20.7-2.54-18.82-20.21l1.3-12.31c2.12-19.88,12-26.6,24-28.37S1513.33,77.33,1511.22,97.2ZM962.41,341.94l37.79-5.56,23.46-220.86-37.79,5.56Zm142.33-238.35-57,8.39-23.47,220.86,59.44-8.74c37.79-5.56,59.31-26.74,62.94-60.82l1.91-18c2.48-23.35-3.65-38.91-23.15-43.18,17.61-9.74,26.71-25.36,29.12-48.08l.84-7.89C1159,112.08,1143.9,97.83,1104.74,103.59ZM1111,248.65l-2,19.25c-1.74,16.4-9.18,22.78-21.89,24.65l-21.64,3.18,7.2-67.83,16.84-2.48C1106.6,222.89,1113.15,228.14,1111,248.65Zm6.21-93.47-1.31,12.31c-1.88,17.67-11.07,24.61-25.15,26.68L1076,196.35l6.2-58.38,18.2-2.67C1113.75,133.32,1118.85,139.41,1117.18,155.18Zm246.59-89.7-57,8.39-23.46,220.86,37.79-5.56,9.55-89.92,13.05-1.92c17.18-2.53,23.93,3.93,21.76,24.44l-3.69,34.71c-1.91,18-.91,21.25.55,26.62l38.48-5.66c-2.91-7.64-2.41-15.48-1.27-26.21l3.62-34.08c2.44-23-2-38.84-20.09-43.32,17.61-9.73,27.08-25.72,29.5-48.44l1.84-17.35C1418,74,1402.93,59.72,1363.77,65.48Zm12.44,51.59-2.31,21.77c-1.88,17.67-11.07,24.61-25.16,26.68L1334,167.7l7.21-67.84,18.2-2.68C1372.78,95.21,1377.89,101.29,1376.21,117.07ZM910.64,132.15l-37.79,5.56L849.38,358.57l100-14.71,3.35-31.55-62.18,9.15ZM1208.3,211l51.87-7.64,3.36-31.55-51.88,7.63,6.54-61.52,65.27-9.61,3.35-31.55L1183.75,92l-23.46,220.86,103.06-15.17,3.35-31.55-65.27,9.61Z" fill="#020202"/></g></g></svg>